# xmcd
#
# Track frame offsets: 
#        150
#        25192
#        60620
#        88640
#        112167
#        139360
#        165910
#        189895
#        223810
#        254087
#
# Disc length: 3560 seconds
#
# Revision: 2
# Processed by: cddbd v1.5.2PL0 Copyright (c) Steve Scherf et al.
# Submitted via: ExactAudioCopy v0.99pb4
#
DISCID=8f0de60a
DTITLE=Fred Hersch - Songs Without Words vol3: Cole Porter
DYEAR=2001
DGENRE=Jazz
TTITLE0=Get Out of Town
TTITLE1=So in Love
TTITLE2=From This Moment On
TTITLE3=Don't Fence me In
TTITLE4=Ev'ry Time we Say Goodbye
TTITLE5=All of You
TTITLE6=Easy to Love
TTITLE7=I Concentrate on You
TTITLE8=You're The Top
TTITLE9=Let's do It
EXTD=
EXTT0=
EXTT1=
EXTT2=
EXTT3=
EXTT4=
EXTT5=
EXTT6=
EXTT7=
EXTT8=
EXTT9=
PLAYORDER=
